<mxfile host="app.diagrams.net" modified="2023-07-18T15:59:35.309Z" agent="Mozilla/5.0 (Macintosh; Intel Mac OS X 10_15_7) AppleWebKit/605.1.15 (KHTML, like Gecko) Version/16.6 Safari/605.1.15" etag="rICOJGt07SRLrJPdKzh5" version="21.6.2" type="github">
  <diagram name="ページ1" id="pktk8Y2zDAOYJyQAGtqb">
    <mxGraphModel dx="694" dy="623" grid="0" gridSize="10" guides="1" tooltips="1" connect="1" arrows="1" fold="1" page="1" pageScale="1" pageWidth="1654" pageHeight="1169" math="0" shadow="0">
      <root>
        <mxCell id="0" />
        <mxCell id="1" parent="0" />
        <mxCell id="EgLtF9qjkDAIR8KsBu2W-1" value="" style="rounded=1;whiteSpace=wrap;html=1;fontSize=16;" vertex="1" parent="1">
          <mxGeometry x="65" y="69" width="187" height="153" as="geometry" />
        </mxCell>
      </root>
    </mxGraphModel>
  </diagram>
</mxfile>
